<svg xmlns:xlink="http://www.w3.org/1999/xlink" xmlns="http://www.w3.org/2000/svg" version="1.1" viewBox="0 0 792 379" height="379px" width="792px">
    
    <title>autocorrelation-3</title>
    <desc>Created with Sketch.</desc>
    <g fill-rule="evenodd" fill="none" stroke-width="1" stroke="none" id="autocorrelation-3">
        <rect height="379" width="792" y="0" x="0" fill="#FFFFFF"></rect>
        <g stroke-width="2" stroke="#636F80" transform="translate(138.000000, 46.000000)" id="axis/Blank">
            <polygon points="0 0 0 228 512 228 512 0" id="Path-6"></polygon>
        </g>
        <g transform="translate(71.000000, 35.000000)" id="axis/y-scale">
            <g transform="translate(0.000000, 228.000000)" id="0">
                <path fill-rule="nonzero" fill="#333333" d="M48.032,16.192 C50.064,16.192 51.296,14.288 51.296,10.864 C51.296,7.44 50.064,5.6 48.032,5.6 C45.984,5.6 44.752,7.44 44.752,10.864 C44.752,14.288 45.984,16.192 48.032,16.192 Z M48.032,15.12 C46.848,15.12 46.048,13.856 46.048,10.864 C46.048,7.872 46.848,6.672 48.032,6.672 C49.216,6.672 50.016,7.872 50.016,10.864 C50.016,13.856 49.216,15.12 48.032,15.12 Z"></path>
                <line transform="translate(63.000000, 11.000000) rotate(-90.000000) translate(-63.000000, -11.000000)" stroke-width="2" stroke="#636F80" id="Path-7" y2="15" x2="63" y1="7" x1="63"></line>
            </g>
            <g transform="translate(0.000000, 182.316832)" id="1">
                <path fill-rule="nonzero" fill="#333333" id="0.2" d="M36.08,16.192 C38.112,16.192 39.344,14.288 39.344,10.864 C39.344,7.44 38.112,5.6 36.08,5.6 C34.032,5.6 32.8,7.44 32.8,10.864 C32.8,14.288 34.032,16.192 36.08,16.192 Z M36.08,15.12 C34.896,15.12 34.096,13.856 34.096,10.864 C34.096,7.872 34.896,6.672 36.08,6.672 C37.264,6.672 38.064,7.872 38.064,10.864 C38.064,13.856 37.264,15.12 36.08,15.12 Z M42.048,16.192 C42.576,16.192 43.008,15.776 43.008,15.184 C43.008,14.576 42.576,14.16 42.048,14.16 C41.52,14.16 41.088,14.576 41.088,15.184 C41.088,15.776 41.52,16.192 42.048,16.192 Z M51.28,16 L51.28,14.864 L48.224,14.864 C47.696,14.864 47.072,14.896 46.512,14.944 C48.992,12.416 50.784,10.576 50.784,8.592 C50.784,6.8 49.6,5.6 47.712,5.6 C46.4,5.6 45.488,6.224 44.64,7.184 L45.392,7.904 C45.968,7.232 46.704,6.688 47.552,6.688 C48.848,6.688 49.488,7.504 49.488,8.672 C49.488,10.32 47.728,12.208 44.688,15.184 L44.688,16 L51.28,16 Z"></path>
                <line transform="translate(63.000000, 11.000000) rotate(-90.000000) translate(-63.000000, -11.000000)" stroke-width="2" stroke="#636F80" id="Path-7" y2="15" x2="63" y1="7" x1="63"></line>
            </g>
            <g transform="translate(0.000000, 136.772277)" id="2">
                <path fill-rule="nonzero" fill="#333333" id="0.4" d="M36.08,16.192 C38.112,16.192 39.344,14.288 39.344,10.864 C39.344,7.44 38.112,5.6 36.08,5.6 C34.032,5.6 32.8,7.44 32.8,10.864 C32.8,14.288 34.032,16.192 36.08,16.192 Z M36.08,15.12 C34.896,15.12 34.096,13.856 34.096,10.864 C34.096,7.872 34.896,6.672 36.08,6.672 C37.264,6.672 38.064,7.872 38.064,10.864 C38.064,13.856 37.264,15.12 36.08,15.12 Z M42.048,16.192 C42.576,16.192 43.008,15.776 43.008,15.184 C43.008,14.576 42.576,14.16 42.048,14.16 C41.52,14.16 41.088,14.576 41.088,15.184 C41.088,15.776 41.52,16.192 42.048,16.192 Z M50.16,16 L50.16,13.184 L51.552,13.184 L51.552,12.128 L50.16,12.128 L50.16,5.792 L48.688,5.792 L44.32,12.304 L44.32,13.184 L48.912,13.184 L48.912,16 L50.16,16 Z M48.912,12.128 L45.712,12.128 L48.096,8.656 C48.384,8.144 48.672,7.696 48.928,7.216 L48.992,7.216 C48.96,7.76 48.912,8.64 48.912,9.168 L48.912,12.128 Z"></path>
                <line transform="translate(63.000000, 11.000000) rotate(-90.000000) translate(-63.000000, -11.000000)" stroke-width="2" stroke="#636F80" id="Path-7" y2="15" x2="63" y1="7" x1="63"></line>
            </g>
            <g transform="translate(0.000000, 91.227723)" id="3">
                <path fill-rule="nonzero" fill="#333333" id="0.6" d="M36.08,16.192 C38.112,16.192 39.344,14.288 39.344,10.864 C39.344,7.44 38.112,5.6 36.08,5.6 C34.032,5.6 32.8,7.44 32.8,10.864 C32.8,14.288 34.032,16.192 36.08,16.192 Z M36.08,15.12 C34.896,15.12 34.096,13.856 34.096,10.864 C34.096,7.872 34.896,6.672 36.08,6.672 C37.264,6.672 38.064,7.872 38.064,10.864 C38.064,13.856 37.264,15.12 36.08,15.12 Z M42.048,16.192 C42.576,16.192 43.008,15.776 43.008,15.184 C43.008,14.576 42.576,14.16 42.048,14.16 C41.52,14.16 41.088,14.576 41.088,15.184 C41.088,15.776 41.52,16.192 42.048,16.192 Z M48.336,16.192 C49.984,16.192 51.36,14.864 51.36,12.912 C51.36,10.816 50.224,9.76 48.448,9.76 C47.616,9.76 46.704,10.272 46.064,11.072 C46.112,7.824 47.328,6.704 48.752,6.704 C49.392,6.704 50.032,7.024 50.432,7.52 L51.168,6.688 C50.608,6.064 49.808,5.6 48.704,5.6 C46.672,5.6 44.816,7.184 44.816,11.28 C44.816,14.56 46.336,16.192 48.336,16.192 Z M48.336,15.152 C47.056,15.152 46.272,14.096 46.096,12.112 C46.736,11.152 47.568,10.752 48.224,10.752 C49.488,10.752 50.112,11.584 50.112,12.912 C50.112,14.256 49.344,15.152 48.336,15.152 Z"></path>
                <line transform="translate(63.000000, 11.000000) rotate(-90.000000) translate(-63.000000, -11.000000)" stroke-width="2" stroke="#636F80" id="Path-7" y2="15" x2="63" y1="7" x1="63"></line>
            </g>
            <g transform="translate(0.000000, 45.683168)" id="4">
                <path fill-rule="nonzero" fill="#333333" id="0.8" d="M36.08,16.192 C38.112,16.192 39.344,14.288 39.344,10.864 C39.344,7.44 38.112,5.6 36.08,5.6 C34.032,5.6 32.8,7.44 32.8,10.864 C32.8,14.288 34.032,16.192 36.08,16.192 Z M36.08,15.12 C34.896,15.12 34.096,13.856 34.096,10.864 C34.096,7.872 34.896,6.672 36.08,6.672 C37.264,6.672 38.064,7.872 38.064,10.864 C38.064,13.856 37.264,15.12 36.08,15.12 Z M42.048,16.192 C42.576,16.192 43.008,15.776 43.008,15.184 C43.008,14.576 42.576,14.16 42.048,14.16 C41.52,14.16 41.088,14.576 41.088,15.184 C41.088,15.776 41.52,16.192 42.048,16.192 Z M48.048,16.192 C50.032,16.192 51.344,14.992 51.344,13.472 C51.344,12.096 50.48,11.376 49.568,10.848 L49.568,10.784 C50.208,10.304 50.976,9.392 50.976,8.32 C50.976,6.736 49.872,5.6 48.096,5.6 C46.448,5.6 45.2,6.656 45.2,8.224 C45.2,9.296 45.872,10.048 46.624,10.576 L46.624,10.64 C45.664,11.152 44.704,12.064 44.704,13.392 C44.704,15.008 46.128,16.192 48.048,16.192 Z M48.768,10.432 C47.536,9.952 46.416,9.44 46.416,8.224 C46.416,7.232 47.12,6.592 48.064,6.592 C49.184,6.592 49.84,7.392 49.84,8.384 C49.84,9.136 49.456,9.824 48.768,10.432 Z M48.08,15.2 C46.832,15.2 45.904,14.384 45.904,13.264 C45.904,12.336 46.512,11.584 47.312,11.056 C48.784,11.648 50.08,12.112 50.08,13.424 C50.08,14.48 49.264,15.2 48.08,15.2 Z"></path>
                <line transform="translate(63.000000, 11.000000) rotate(-90.000000) translate(-63.000000, -11.000000)" stroke-width="2" stroke="#636F80" id="Path-7" y2="15" x2="63" y1="7" x1="63"></line>
            </g>
            <g transform="translate(0.000000, 0.138614)" id="5">
                <path fill-rule="nonzero" fill="#333333" id="1" d="M51.072,16 L51.072,14.896 L48.976,14.896 L48.976,5.792 L47.952,5.792 C47.392,6.128 46.72,6.384 45.776,6.544 L45.776,7.408 L47.648,7.408 L47.648,14.896 L45.312,14.896 L45.312,16 L51.072,16 Z"></path>
                <line transform="translate(63.000000, 11.000000) rotate(-90.000000) translate(-63.000000, -11.000000)" stroke-width="2" stroke="#636F80" id="Path-7" y2="15" x2="63" y1="7" x1="63"></line>
            </g>
        </g>
        <g transform="translate(132.000000, 90.000000)" id="axis/horizontal-grid">
            <g id="1">
                <path fill-rule="nonzero" fill="#BAC0CF" d="M517,0.845588235 L517,1.84558824 L7,1.84558824 L7,0.845588235 L517,0.845588235 Z" id="line"></path>
                <line transform="translate(2.500000, 1.345588) rotate(-90.000000) translate(-2.500000, -1.345588)" stroke="#636F80" id="Path-7" y2="3.84558824" x2="2.5" y1="-1.15441176" x1="2.5"></line>
            </g>
            <g transform="translate(0.000000, 45.750000)" id="2">
                <path fill-rule="nonzero" fill="#BAC0CF" d="M517,0.845588235 L517,1.84558824 L7,1.84558824 L7,0.845588235 L517,0.845588235 Z" id="line"></path>
                <line transform="translate(2.500000, 1.345588) rotate(-90.000000) translate(-2.500000, -1.345588)" stroke="#636F80" id="Path-7" y2="3.84558824" x2="2.5" y1="-1.15441176" x1="2.5"></line>
            </g>
            <g transform="translate(0.000000, 91.500000)" id="3">
                <path fill-rule="nonzero" fill="#BAC0CF" d="M517,0.845588235 L517,1.84558824 L7,1.84558824 L7,0.845588235 L517,0.845588235 Z" id="line"></path>
                <line transform="translate(2.500000, 1.345588) rotate(-90.000000) translate(-2.500000, -1.345588)" stroke="#636F80" id="Path-7" y2="3.84558824" x2="2.5" y1="-1.15441176" x1="2.5"></line>
            </g>
            <g transform="translate(0.000000, 137.250000)" id="4">
                <path fill-rule="nonzero" fill="#BAC0CF" d="M517,0.845588235 L517,1.84558824 L7,1.84558824 L7,0.845588235 L517,0.845588235 Z" id="line"></path>
                <line transform="translate(2.500000, 1.345588) rotate(-90.000000) translate(-2.500000, -1.345588)" stroke="#636F80" id="Path-7" y2="3.84558824" x2="2.5" y1="-1.15441176" x1="2.5"></line>
            </g>
        </g>
        <g transform="translate(137.000000, 275.000000)" id="Group">
            <path fill-rule="nonzero" fill="#333333" id="0" d="M33.008,24.192 C35.04,24.192 36.272,22.288 36.272,18.864 C36.272,15.44 35.04,13.6 33.008,13.6 C30.96,13.6 29.728,15.44 29.728,18.864 C29.728,22.288 30.96,24.192 33.008,24.192 Z M33.008,23.12 C31.824,23.12 31.024,21.856 31.024,18.864 C31.024,15.872 31.824,14.672 33.008,14.672 C34.192,14.672 34.992,15.872 34.992,18.864 C34.992,21.856 34.192,23.12 33.008,23.12 Z"></path>
            <path fill-rule="nonzero" fill="#333333" id="1" d="M100.048,24 L100.048,22.896 L97.952,22.896 L97.952,13.792 L96.928,13.792 C96.368,14.128 95.696,14.384 94.752,14.544 L94.752,15.408 L96.624,15.408 L96.624,22.896 L94.288,22.896 L94.288,24 L100.048,24 Z"></path>
            <path fill-rule="nonzero" fill="#333333" id="2" d="M164.256,24 L164.256,22.864 L161.2,22.864 C160.672,22.864 160.048,22.896 159.488,22.944 C161.968,20.416 163.76,18.576 163.76,16.592 C163.76,14.8 162.576,13.6 160.688,13.6 C159.376,13.6 158.464,14.224 157.616,15.184 L158.368,15.904 C158.944,15.232 159.68,14.688 160.528,14.688 C161.824,14.688 162.464,15.504 162.464,16.672 C162.464,18.32 160.704,20.208 157.664,23.184 L157.664,24 L164.256,24 Z"></path>
            <path fill-rule="nonzero" fill="#333333" id="3" d="M224.8,24.192 C226.672,24.192 228.176,23.088 228.176,21.28 C228.176,19.872 227.2,18.976 225.968,18.688 L225.968,18.624 C227.072,18.208 227.808,17.424 227.808,16.192 C227.808,14.544 226.528,13.6 224.752,13.6 C223.552,13.6 222.608,14.144 221.824,14.88 L222.528,15.712 C223.136,15.12 223.856,14.688 224.704,14.688 C225.792,14.688 226.464,15.312 226.464,16.288 C226.464,17.36 225.728,18.192 223.568,18.192 L223.568,19.2 C226,19.2 226.832,20.016 226.832,21.232 C226.832,22.368 225.952,23.088 224.72,23.088 C223.52,23.088 222.72,22.528 222.112,21.888 L221.44,22.752 C222.128,23.504 223.168,24.192 224.8,24.192 Z"></path>
            <path fill-rule="nonzero" fill="#333333" id="4" d="M291.136,24 L291.136,21.184 L292.528,21.184 L292.528,20.128 L291.136,20.128 L291.136,13.792 L289.664,13.792 L285.296,20.304 L285.296,21.184 L289.888,21.184 L289.888,24 L291.136,24 Z M289.888,20.128 L286.688,20.128 L289.072,16.656 C289.36,16.144 289.648,15.696 289.904,15.216 L289.968,15.216 C289.936,15.76 289.888,16.64 289.888,17.168 L289.888,20.128 Z"></path>
            <path fill-rule="nonzero" fill="#333333" id="5" d="M352.768,24.192 C354.544,24.192 356.208,22.944 356.208,20.736 C356.208,18.528 354.784,17.536 353.056,17.536 C352.432,17.536 351.968,17.696 351.488,17.952 L351.76,14.944 L355.712,14.944 L355.712,13.792 L350.592,13.792 L350.256,18.704 L350.96,19.152 C351.568,18.752 352,18.544 352.704,18.544 C354.016,18.544 354.864,19.36 354.864,20.768 C354.864,22.192 353.888,23.088 352.64,23.088 C351.44,23.088 350.672,22.528 350.064,21.92 L349.424,22.8 C350.128,23.504 351.136,24.192 352.768,24.192 Z"></path>
            <path fill-rule="nonzero" fill="#333333" id="6" d="M417.312,24.192 C418.96,24.192 420.336,22.864 420.336,20.912 C420.336,18.816 419.2,17.76 417.424,17.76 C416.592,17.76 415.68,18.272 415.04,19.072 C415.088,15.824 416.304,14.704 417.728,14.704 C418.368,14.704 419.008,15.024 419.408,15.52 L420.144,14.688 C419.584,14.064 418.784,13.6 417.68,13.6 C415.648,13.6 413.792,15.184 413.792,19.28 C413.792,22.56 415.312,24.192 417.312,24.192 Z M417.312,23.152 C416.032,23.152 415.248,22.096 415.072,20.112 C415.712,19.152 416.544,18.752 417.2,18.752 C418.464,18.752 419.088,19.584 419.088,20.912 C419.088,22.256 418.32,23.152 417.312,23.152 Z"></path>
            <path fill-rule="nonzero" fill="#333333" id="7" d="M481.12,24 C481.296,20.016 481.856,17.712 484.304,14.608 L484.304,13.792 L477.728,13.792 L477.728,14.944 L482.816,14.944 C480.752,17.76 479.936,20.16 479.76,24 L481.12,24 Z"></path>
            <line stroke-width="2" stroke="#636F80" id="Path-7" y2="8" x2="1" y1="0" x1="1"></line>
            <line stroke-width="2" stroke="#636F80" id="Path-7" y2="8" x2="385" y1="0" x1="385"></line>
            <line stroke-width="2" stroke="#636F80" id="Path-7" y2="8" x2="449" y1="0" x1="449"></line>
            <line stroke-width="2" stroke="#636F80" id="Path-7" y2="8" x2="321" y1="0" x1="321"></line>
            <line stroke-width="2" stroke="#636F80" id="Path-7" y2="8" x2="257" y1="0" x1="257"></line>
            <line stroke-width="2" stroke="#636F80" id="Path-7" y2="8" x2="193" y1="0" x1="193"></line>
            <line stroke-width="2" stroke="#636F80" id="Path-7" y2="8" x2="129" y1="0" x1="129"></line>
            <line stroke-width="2" stroke="#636F80" id="Path-7" y2="8" x2="65" y1="0" x1="65"></line>
            <line stroke-width="2" stroke="#636F80" id="Path-7" y2="8" x2="513" y1="0" x1="513"></line>
        </g>
        <polygon points="152 273 188 273 188 47 152 47" fill="#73B0DE" id="Fill-2"></polygon>
        <polygon points="216 273 252 273 252 213 216 213" fill="#73B0DE" id="Fill-2-Copy"></polygon>
        <polygon points="280 273 316 273 316 228 280 228" fill="#73B0DE" id="Fill-2-Copy-2"></polygon>
        <polygon points="344 273 380 273 380 228 344 228" fill="#73B0DE" id="Fill-2-Copy-3"></polygon>
        <polygon points="408 273 444 273 444 251 408 251" fill="#73B0DE" id="Fill-2-Copy-4"></polygon>
        <polygon points="472 273 508 273 508 237 472 237" fill="#73B0DE" id="Fill-2-Copy-5"></polygon>
        <polygon points="536 273 572 273 572 223 536 223" fill="#73B0DE" id="Fill-2-Copy-6"></polygon>
        <polygon points="600 273 636 273 636 232 600 232" fill="#73B0DE" id="Fill-2-Copy-7"></polygon>
        <path fill-rule="nonzero" fill="#333333" id="r" d="M77.811,158 L77.811,151.448 C78.504,149.726 79.533,149.117 80.394,149.117 C80.793,149.117 81.024,149.159 81.318,149.243 L81.696,147.752 C81.381,147.605 81.066,147.542 80.604,147.542 C79.47,147.542 78.42,148.361 77.706,149.642 L77.643,149.642 L77.496,147.794 L76.068,147.794 L76.068,158 L77.811,158 Z"></path>
        <polygon points="398.557 339 398.557 337.509 392.551 337.509 392.551 325.224 390.787 325.224 390.787 339" fill-rule="nonzero" fill="#333333" id="L"></polygon>
    </g>
</svg>