<svg xml:space="preserve" style="enable-background:new 0 0 730 320;" viewBox="0 0 730 320" y="0px" x="0px" xmlns:xlink="http://www.w3.org/1999/xlink" xmlns="http://www.w3.org/2000/svg" version="1.1">
<style type="text/css">
	.st0{fill:none;stroke:#CCCCCC;}
	.st1{fill:#999999;}
	.st2{fill:none;stroke:#333333;}
	.st3{fill:#ED454A;}
	.st4{fill:#8CC63F;}
</style>
<g id="Layer_2">
	<polyline points="42.5,22 42.5,288.5 713.5,288.5" class="st0"></polyline>
	<line y2="22" x2="36.5" y1="22" x1="43" class="st0"></line>
	<line y2="51.3" x2="36.5" y1="51.3" x1="42.5" class="st0"></line>
	<line y2="80.5" x2="36.5" y1="80.5" x1="42.5" class="st0"></line>
	<line y2="109.8" x2="36.5" y1="109.8" x1="42.5" class="st0"></line>
	<line y2="139" x2="36.5" y1="139" x1="42.5" class="st0"></line>
	<line y2="168" x2="36.5" y1="168" x1="42.5" class="st0"></line>
	<line y2="197.3" x2="36.5" y1="197.3" x1="42.5" class="st0"></line>
	<line y2="226.2" x2="36.5" y1="226.2" x1="42.5" class="st0"></line>
	<line y2="255.7" x2="36.5" y1="255.7" x1="42.5" class="st0"></line>
	<line y2="288.5" x2="88.5" y1="294.5" x1="88.5" class="st0"></line>
	<line y2="288.5" x2="448.5" y1="294.5" x1="448.5" class="st0"></line>
	<line y2="288.5" x2="36.5" y1="288.5" x1="42.5" class="st0"></line>
	<g>
		<path d="M21.1,287h0.8v-3.5h2c0.4,0,0.7,0,1,0.1c0.3,0.1,0.6,0.2,0.8,0.4c0.2,0.2,0.4,0.4,0.5,0.7
			c0.1,0.3,0.2,0.6,0.2,0.9c0,0.4-0.1,0.7-0.2,1s-0.3,0.5-0.5,0.7s-0.5,0.3-0.8,0.4c-0.3,0.1-0.6,0.1-1,0.1h-1.1v1.1h1.8v0.7h-1.8
			v1.6h-0.9v-1.6h-0.8v-0.7h0.8v-1.1h-0.8V287z M23.9,287c0.5,0,0.9-0.1,1.2-0.3c0.3-0.2,0.4-0.6,0.4-1c0-0.5-0.1-0.8-0.4-1
			c-0.3-0.2-0.7-0.3-1.2-0.3h-1.1v2.7H23.9z" class="st1"></path>
		<path d="M27.5,286.4c0-0.3,0.1-0.6,0.1-0.9c0.1-0.3,0.1-0.6,0.3-0.8c0.1-0.3,0.3-0.5,0.5-0.7c0.2-0.2,0.4-0.4,0.7-0.5
			c0.3-0.1,0.6-0.2,1-0.2s0.7,0.1,1,0.2c0.3,0.1,0.5,0.3,0.7,0.5c0.2,0.2,0.3,0.4,0.5,0.7s0.2,0.5,0.3,0.8c0.1,0.3,0.1,0.6,0.1,0.9
			c0,0.3,0,0.6,0,0.9s0,0.6,0,0.9c0,0.3-0.1,0.6-0.1,0.9c-0.1,0.3-0.1,0.6-0.3,0.8c-0.1,0.3-0.3,0.5-0.5,0.7
			c-0.2,0.2-0.4,0.4-0.7,0.5c-0.3,0.1-0.6,0.2-1,0.2c-0.4,0-0.8-0.1-1-0.2c-0.3-0.1-0.5-0.3-0.7-0.5c-0.2-0.2-0.3-0.4-0.5-0.7
			c-0.1-0.3-0.2-0.5-0.3-0.8c-0.1-0.3-0.1-0.6-0.1-0.9c0-0.3,0-0.6,0-0.9S27.5,286.8,27.5,286.4z M28.5,288.3c0,0.4,0.1,0.7,0.2,1
			c0.1,0.3,0.3,0.6,0.5,0.8c0.2,0.2,0.5,0.3,0.9,0.3s0.7-0.1,0.9-0.3c0.2-0.2,0.4-0.5,0.5-0.8c0.1-0.3,0.2-0.7,0.2-1
			c0-0.4,0-0.7,0-1c0-0.2,0-0.4,0-0.6c0-0.2,0-0.5-0.1-0.7c0-0.2-0.1-0.5-0.1-0.7s-0.2-0.4-0.3-0.6s-0.3-0.3-0.5-0.4
			c-0.2-0.1-0.4-0.2-0.7-0.2c-0.3,0-0.5,0.1-0.7,0.2c-0.2,0.1-0.3,0.2-0.5,0.4c-0.1,0.2-0.2,0.4-0.3,0.6c-0.1,0.2-0.1,0.4-0.1,0.7
			c0,0.2-0.1,0.5-0.1,0.7c0,0.2,0,0.4,0,0.6C28.5,287.6,28.5,287.9,28.5,288.3z" class="st1"></path>
	</g>
	<g>
		<path d="M74.6,299.6h1.5l2.2,6.6h0l2.2-6.6h1.5v7.9h-1v-6.6h0l-2.2,6.6h-1.1l-2.2-6.6h0v6.6h-1V299.6z" class="st1"></path>
		<path d="M84,303.5c0-0.4,0.1-0.6,0.2-0.9c0.1-0.2,0.3-0.4,0.5-0.6s0.5-0.3,0.7-0.3c0.3-0.1,0.6-0.1,0.9-0.1
			c0.3,0,0.6,0,0.8,0.1c0.3,0.1,0.5,0.1,0.7,0.3s0.4,0.3,0.5,0.5c0.1,0.2,0.2,0.4,0.2,0.7v3.3c0,0.1,0,0.2,0.1,0.2s0.1,0.1,0.2,0.1
			c0.1,0,0.1,0,0.2,0s0.1,0,0.2,0v0.7c-0.1,0-0.2,0-0.2,0.1c-0.1,0-0.2,0-0.3,0c-0.2,0-0.3,0-0.4,0c-0.1,0-0.2-0.1-0.3-0.1
			c-0.1-0.1-0.1-0.2-0.2-0.3s-0.1-0.2-0.1-0.4c-0.1,0.1-0.3,0.3-0.4,0.4c-0.1,0.1-0.3,0.2-0.5,0.3s-0.4,0.2-0.6,0.2
			c-0.2,0-0.4,0.1-0.7,0.1c-0.2,0-0.4,0-0.6-0.1c-0.2-0.1-0.4-0.2-0.6-0.3c-0.2-0.1-0.3-0.3-0.4-0.5s-0.2-0.4-0.2-0.7
			c0-0.3,0.1-0.6,0.2-0.8s0.2-0.4,0.4-0.5c0.2-0.1,0.3-0.3,0.6-0.3c0.2-0.1,0.4-0.1,0.6-0.2l1.6-0.2c0.2,0,0.3-0.1,0.4-0.2
			c0.1-0.1,0.1-0.3,0.1-0.5c0-0.3-0.1-0.6-0.3-0.7c-0.2-0.2-0.6-0.2-1-0.2c-0.4,0-0.8,0.1-1,0.3s-0.3,0.5-0.4,0.8H84z M87.6,304.6
			c-0.1,0.1-0.2,0.1-0.3,0.1c-0.1,0-0.2,0.1-0.4,0.1c-0.1,0-0.3,0-0.4,0.1s-0.3,0-0.5,0.1c-0.2,0-0.3,0.1-0.5,0.1
			c-0.2,0-0.3,0.1-0.4,0.2c-0.1,0.1-0.2,0.2-0.3,0.3s-0.1,0.2-0.1,0.4c0,0.2,0,0.3,0.1,0.4c0.1,0.1,0.1,0.2,0.2,0.3
			c0.1,0.1,0.2,0.2,0.3,0.2s0.3,0.1,0.4,0.1c0.1,0,0.2,0,0.3,0s0.3-0.1,0.4-0.1c0.1,0,0.3-0.1,0.4-0.2c0.1-0.1,0.2-0.2,0.3-0.3
			s0.2-0.2,0.2-0.4s0.1-0.3,0.1-0.4V304.6z" class="st1"></path>
		<path d="M90.3,301.7h1v0.8h0c0.1-0.1,0.1-0.3,0.2-0.4c0.1-0.1,0.2-0.2,0.4-0.3c0.1-0.1,0.3-0.2,0.5-0.2
			c0.2,0,0.4-0.1,0.6-0.1c0.3,0,0.6,0.1,0.9,0.2c0.3,0.1,0.5,0.3,0.8,0.5s0.4,0.5,0.5,0.9s0.2,0.8,0.2,1.2c0,0.6-0.1,1.1-0.2,1.5
			c-0.1,0.4-0.3,0.8-0.5,1c-0.2,0.3-0.5,0.5-0.8,0.6s-0.7,0.2-1,0.2c-0.2,0-0.4,0-0.5-0.1c-0.2,0-0.3-0.1-0.4-0.2
			c-0.1-0.1-0.2-0.2-0.3-0.3s-0.2-0.2-0.2-0.3h0v2.9h-1V301.7z M91.3,304.7c0,0.3,0,0.6,0.1,0.9c0.1,0.3,0.2,0.5,0.3,0.7
			c0.1,0.2,0.3,0.3,0.5,0.5c0.2,0.1,0.4,0.2,0.7,0.2c0.3,0,0.5-0.1,0.7-0.2c0.2-0.1,0.4-0.3,0.5-0.5s0.2-0.4,0.3-0.7
			c0.1-0.3,0.1-0.6,0.1-0.9c0-0.3,0-0.6-0.1-0.9c-0.1-0.3-0.2-0.5-0.3-0.7s-0.3-0.3-0.5-0.5c-0.2-0.1-0.4-0.2-0.7-0.2
			c-0.3,0-0.5,0.1-0.7,0.2c-0.2,0.1-0.4,0.3-0.5,0.5c-0.1,0.2-0.2,0.4-0.3,0.7C91.3,304,91.3,304.3,91.3,304.7z" class="st1"></path>
		<path d="M98.3,302.6h-2v-0.9h5v0.9h-2v4.9h-1V302.6z" class="st1"></path>
	</g>
	<g>
		<path d="M428.7,307.5l3-8h1.3l2.9,8h-1.2l-0.8-2.4h-3.1l-0.9,2.4H428.7z M433.5,304.2l-1.2-3.5l-1.3,3.5H433.5z" class="st1"></path>
		<path d="M440.6,302.6h-2.7v4.9h-1v-5.8h4.7v5.8h-1V302.6z" class="st1"></path>
		<path d="M443.3,301.7h1v0.8h0c0.1-0.1,0.1-0.3,0.2-0.4c0.1-0.1,0.2-0.2,0.4-0.3c0.1-0.1,0.3-0.2,0.5-0.2
			s0.4-0.1,0.6-0.1c0.3,0,0.6,0.1,0.9,0.2c0.3,0.1,0.5,0.3,0.8,0.5c0.2,0.2,0.4,0.5,0.5,0.9s0.2,0.8,0.2,1.2c0,0.6-0.1,1.1-0.2,1.5
			c-0.1,0.4-0.3,0.8-0.5,1c-0.2,0.3-0.5,0.5-0.8,0.6s-0.7,0.2-1,0.2c-0.2,0-0.4,0-0.5-0.1c-0.2,0-0.3-0.1-0.4-0.2
			c-0.1-0.1-0.2-0.2-0.3-0.3c-0.1-0.1-0.2-0.2-0.2-0.3h0v2.9h-1V301.7z M444.3,304.7c0,0.3,0,0.6,0.1,0.9c0.1,0.3,0.2,0.5,0.3,0.7
			c0.1,0.2,0.3,0.3,0.5,0.5s0.4,0.2,0.7,0.2c0.3,0,0.5-0.1,0.7-0.2c0.2-0.1,0.4-0.3,0.5-0.5s0.2-0.4,0.3-0.7
			c0.1-0.3,0.1-0.6,0.1-0.9c0-0.3,0-0.6-0.1-0.9c-0.1-0.3-0.2-0.5-0.3-0.7s-0.3-0.3-0.5-0.5c-0.2-0.1-0.4-0.2-0.7-0.2
			c-0.3,0-0.5,0.1-0.7,0.2s-0.4,0.3-0.5,0.5c-0.1,0.2-0.2,0.4-0.3,0.7C444.3,304,444.3,304.3,444.3,304.7z" class="st1"></path>
		<path d="M454.6,305.7c0,0.3-0.1,0.5-0.3,0.7c-0.1,0.2-0.3,0.5-0.5,0.6c-0.2,0.2-0.5,0.3-0.8,0.5s-0.6,0.2-1,0.2
			c-0.4,0-0.7-0.1-1.1-0.2c-0.3-0.1-0.6-0.3-0.8-0.6s-0.4-0.6-0.6-1c-0.1-0.4-0.2-0.8-0.2-1.4c0-0.4,0-0.7,0.1-1
			c0.1-0.3,0.2-0.5,0.3-0.8c0.1-0.2,0.3-0.4,0.5-0.6s0.4-0.3,0.5-0.4c0.2-0.1,0.4-0.2,0.6-0.2c0.2-0.1,0.4-0.1,0.6-0.1
			c0.4,0,0.8,0.1,1.1,0.2c0.3,0.1,0.6,0.3,0.8,0.5c0.2,0.2,0.4,0.5,0.5,0.9s0.2,0.8,0.2,1.3v0.5h-4.2c0,0.3,0,0.5,0.1,0.8
			s0.2,0.4,0.3,0.6c0.1,0.2,0.3,0.3,0.5,0.4c0.2,0.1,0.4,0.1,0.7,0.1c0.3,0,0.5,0,0.6-0.1c0.2-0.1,0.3-0.2,0.4-0.3s0.2-0.2,0.3-0.4
			c0.1-0.1,0.1-0.3,0.2-0.4H454.6z M453.7,304.2c0-0.3,0-0.5-0.1-0.7c-0.1-0.2-0.2-0.4-0.3-0.5s-0.3-0.3-0.5-0.3s-0.4-0.1-0.6-0.1
			c-0.2,0-0.4,0-0.6,0.1c-0.2,0.1-0.4,0.2-0.5,0.4c-0.1,0.2-0.3,0.3-0.3,0.6s-0.1,0.4-0.2,0.7H453.7z" class="st1"></path>
		<path d="M460,302.6h-2.2l0,1.4c0,0.7-0.1,1.3-0.2,1.7c-0.1,0.5-0.2,0.8-0.4,1.1c-0.1,0.3-0.3,0.5-0.5,0.6
			c-0.2,0.1-0.5,0.2-0.7,0.2c-0.1,0-0.2,0-0.3,0s-0.1-0.1-0.2-0.1v-0.9c0.1,0.1,0.3,0.1,0.4,0.1c0.1,0,0.1,0,0.2,0
			c0.1,0,0.1-0.1,0.2-0.1c0.1-0.1,0.1-0.2,0.2-0.3s0.1-0.3,0.1-0.5c0-0.2,0.1-0.5,0.1-0.8c0-0.3,0-0.7,0.1-1.1l0-2.1h4.1v5.8h-1
			V302.6z" class="st1"></path>
		<path d="M462.7,301.7h1v2.2h1.6c0.3,0,0.6,0,0.8,0.1s0.5,0.2,0.6,0.4c0.2,0.2,0.3,0.3,0.4,0.6
			c0.1,0.2,0.1,0.5,0.1,0.7c0,0.3,0,0.5-0.1,0.7c-0.1,0.2-0.2,0.4-0.4,0.6c-0.2,0.2-0.4,0.3-0.6,0.4c-0.2,0.1-0.5,0.1-0.8,0.1h-2.6
			V301.7z M463.7,306.7h1.4c0.2,0,0.3,0,0.5-0.1c0.1,0,0.3-0.1,0.4-0.2c0.1-0.1,0.2-0.2,0.3-0.3c0.1-0.1,0.1-0.3,0.1-0.5
			c0-0.2,0-0.3-0.1-0.5c-0.1-0.1-0.2-0.2-0.3-0.3c-0.1-0.1-0.2-0.1-0.4-0.2c-0.2,0-0.3-0.1-0.5-0.1h-1.3V306.7z" class="st1"></path>
	</g>
	<g>
		<path d="M14.7,255.2h0.8v-3.5h2c0.4,0,0.7,0,1,0.1c0.3,0.1,0.6,0.2,0.8,0.4c0.2,0.2,0.4,0.4,0.5,0.7
			c0.1,0.3,0.2,0.6,0.2,0.9c0,0.4-0.1,0.7-0.2,1s-0.3,0.5-0.5,0.7s-0.5,0.3-0.8,0.4c-0.3,0.1-0.6,0.1-1,0.1h-1.1v1.1h1.8v0.7h-1.8
			v1.6h-0.9v-1.6h-0.8V257h0.8v-1.1h-0.8V255.2z M17.5,255.2c0.5,0,0.9-0.1,1.2-0.3c0.3-0.2,0.4-0.6,0.4-1c0-0.5-0.1-0.8-0.4-1
			c-0.3-0.2-0.7-0.3-1.2-0.3h-1.1v2.7H17.5z" class="st1"></path>
		<path d="M23.6,259.3v-5.6h-2V253c0.3,0,0.5,0,0.8-0.1c0.2,0,0.5-0.1,0.7-0.2s0.4-0.3,0.5-0.5c0.1-0.2,0.2-0.4,0.3-0.7
			h0.7v7.8H23.6z" class="st1"></path>
		<path d="M27.5,254.6c0-0.3,0.1-0.6,0.1-0.9c0.1-0.3,0.1-0.6,0.3-0.8c0.1-0.3,0.3-0.5,0.5-0.7c0.2-0.2,0.4-0.4,0.7-0.5
			c0.3-0.1,0.6-0.2,1-0.2s0.7,0.1,1,0.2c0.3,0.1,0.5,0.3,0.7,0.5c0.2,0.2,0.3,0.4,0.5,0.7s0.2,0.5,0.3,0.8c0.1,0.3,0.1,0.6,0.1,0.9
			c0,0.3,0,0.6,0,0.9s0,0.6,0,0.9c0,0.3-0.1,0.6-0.1,0.9c-0.1,0.3-0.1,0.6-0.3,0.8c-0.1,0.3-0.3,0.5-0.5,0.7
			c-0.2,0.2-0.4,0.4-0.7,0.5c-0.3,0.1-0.6,0.2-1,0.2c-0.4,0-0.8-0.1-1-0.2c-0.3-0.1-0.5-0.3-0.7-0.5c-0.2-0.2-0.3-0.4-0.5-0.7
			c-0.1-0.3-0.2-0.5-0.3-0.8c-0.1-0.3-0.1-0.6-0.1-0.9c0-0.3,0-0.6,0-0.9S27.5,254.9,27.5,254.6z M28.5,256.5c0,0.4,0.1,0.7,0.2,1
			c0.1,0.3,0.3,0.6,0.5,0.8c0.2,0.2,0.5,0.3,0.9,0.3s0.7-0.1,0.9-0.3c0.2-0.2,0.4-0.5,0.5-0.8c0.1-0.3,0.2-0.7,0.2-1
			c0-0.4,0-0.7,0-1c0-0.2,0-0.4,0-0.6c0-0.2,0-0.5-0.1-0.7c0-0.2-0.1-0.5-0.1-0.7s-0.2-0.4-0.3-0.6s-0.3-0.3-0.5-0.4
			c-0.2-0.1-0.4-0.2-0.7-0.2c-0.3,0-0.5,0.1-0.7,0.2c-0.2,0.1-0.3,0.2-0.5,0.4c-0.1,0.2-0.2,0.4-0.3,0.6c-0.1,0.2-0.1,0.4-0.1,0.7
			c0,0.2-0.1,0.5-0.1,0.7c0,0.2,0,0.4,0,0.6C28.5,255.8,28.5,256.1,28.5,256.5z" class="st1"></path>
	</g>
	<g>
		<path d="M14.7,226h0.8v-3.5h2c0.4,0,0.7,0,1,0.1c0.3,0.1,0.6,0.2,0.8,0.4c0.2,0.2,0.4,0.4,0.5,0.7
			c0.1,0.3,0.2,0.6,0.2,0.9c0,0.4-0.1,0.7-0.2,1s-0.3,0.5-0.5,0.7s-0.5,0.3-0.8,0.4c-0.3,0.1-0.6,0.1-1,0.1h-1.1v1.1h1.8v0.7h-1.8
			v1.6h-0.9v-1.6h-0.8v-0.7h0.8v-1.1h-0.8V226z M17.5,226c0.5,0,0.9-0.1,1.2-0.3c0.3-0.2,0.4-0.6,0.4-1c0-0.5-0.1-0.8-0.4-1
			c-0.3-0.2-0.7-0.3-1.2-0.3h-1.1v2.7H17.5z" class="st1"></path>
		<path d="M21.3,224c0.1-0.3,0.3-0.6,0.5-0.9c0.2-0.2,0.5-0.4,0.8-0.6s0.7-0.2,1.1-0.2c0.3,0,0.7,0,1,0.1
			c0.3,0.1,0.6,0.2,0.8,0.4c0.2,0.2,0.4,0.4,0.5,0.7c0.1,0.3,0.2,0.6,0.2,1c0,0.3-0.1,0.6-0.2,0.9c-0.1,0.3-0.2,0.5-0.4,0.7
			c-0.2,0.2-0.4,0.4-0.6,0.6c-0.2,0.2-0.5,0.3-0.7,0.5c-0.2,0.1-0.5,0.3-0.7,0.4c-0.2,0.1-0.5,0.3-0.7,0.5s-0.4,0.3-0.5,0.5
			c-0.1,0.2-0.2,0.4-0.3,0.6h4v0.8h-5.1c0-0.5,0.1-0.9,0.2-1.2c0.1-0.3,0.3-0.6,0.5-0.9c0.2-0.2,0.4-0.5,0.7-0.6
			c0.2-0.2,0.5-0.4,0.8-0.5c0.3-0.2,0.6-0.4,0.9-0.6c0.2-0.2,0.5-0.3,0.6-0.5c0.2-0.2,0.3-0.4,0.4-0.6c0.1-0.2,0.1-0.4,0.1-0.7
			c0-0.2,0-0.4-0.1-0.6c-0.1-0.2-0.2-0.3-0.3-0.4s-0.3-0.2-0.5-0.3c-0.2-0.1-0.4-0.1-0.6-0.1c-0.3,0-0.5,0.1-0.7,0.2
			c-0.2,0.1-0.4,0.3-0.5,0.4c-0.1,0.2-0.2,0.4-0.3,0.6c-0.1,0.2-0.1,0.5-0.1,0.7h-0.9C21.1,224.7,21.2,224.3,21.3,224z" class="st1"></path>
		<path d="M27.5,225.4c0-0.3,0.1-0.6,0.1-0.9c0.1-0.3,0.1-0.6,0.3-0.8c0.1-0.3,0.3-0.5,0.5-0.7c0.2-0.2,0.4-0.4,0.7-0.5
			c0.3-0.1,0.6-0.2,1-0.2s0.7,0.1,1,0.2c0.3,0.1,0.5,0.3,0.7,0.5c0.2,0.2,0.3,0.4,0.5,0.7s0.2,0.5,0.3,0.8c0.1,0.3,0.1,0.6,0.1,0.9
			c0,0.3,0,0.6,0,0.9s0,0.6,0,0.9c0,0.3-0.1,0.6-0.1,0.9c-0.1,0.3-0.1,0.6-0.3,0.8c-0.1,0.3-0.3,0.5-0.5,0.7
			c-0.2,0.2-0.4,0.4-0.7,0.5c-0.3,0.1-0.6,0.2-1,0.2c-0.4,0-0.8-0.1-1-0.2c-0.3-0.1-0.5-0.3-0.7-0.5c-0.2-0.2-0.3-0.4-0.5-0.7
			c-0.1-0.3-0.2-0.5-0.3-0.8c-0.1-0.3-0.1-0.6-0.1-0.9c0-0.3,0-0.6,0-0.9S27.5,225.7,27.5,225.4z M28.5,227.3c0,0.4,0.1,0.7,0.2,1
			c0.1,0.3,0.3,0.6,0.5,0.8c0.2,0.2,0.5,0.3,0.9,0.3s0.7-0.1,0.9-0.3c0.2-0.2,0.4-0.5,0.5-0.8c0.1-0.3,0.2-0.7,0.2-1
			c0-0.4,0-0.7,0-1c0-0.2,0-0.4,0-0.6c0-0.2,0-0.5-0.1-0.7c0-0.2-0.1-0.5-0.1-0.7s-0.2-0.4-0.3-0.6s-0.3-0.3-0.5-0.4
			c-0.2-0.1-0.4-0.2-0.7-0.2c-0.3,0-0.5,0.1-0.7,0.2c-0.2,0.1-0.3,0.2-0.5,0.4c-0.1,0.2-0.2,0.4-0.3,0.6c-0.1,0.2-0.1,0.4-0.1,0.7
			c0,0.2-0.1,0.5-0.1,0.7c0,0.2,0,0.4,0,0.6C28.5,226.6,28.5,226.9,28.5,227.3z" class="st1"></path>
	</g>
	<g>
		<path d="M14.7,196.8h0.8v-3.5h2c0.4,0,0.7,0,1,0.1c0.3,0.1,0.6,0.2,0.8,0.4c0.2,0.2,0.4,0.4,0.5,0.7
			c0.1,0.3,0.2,0.6,0.2,0.9c0,0.4-0.1,0.7-0.2,1s-0.3,0.5-0.5,0.7s-0.5,0.3-0.8,0.4c-0.3,0.1-0.6,0.1-1,0.1h-1.1v1.1h1.8v0.7h-1.8
			v1.6h-0.9v-1.6h-0.8v-0.7h0.8v-1.1h-0.8V196.8z M17.5,196.8c0.5,0,0.9-0.1,1.2-0.3c0.3-0.2,0.4-0.6,0.4-1c0-0.5-0.1-0.8-0.4-1
			c-0.3-0.2-0.7-0.3-1.2-0.3h-1.1v2.7H17.5z" class="st1"></path>
		<path d="M23.2,196.5c0,0,0.1,0,0.1,0h0.2c0.2,0,0.4,0,0.6-0.1s0.3-0.1,0.5-0.2c0.1-0.1,0.2-0.2,0.3-0.4
			s0.1-0.3,0.1-0.5c0-0.4-0.1-0.7-0.4-0.9s-0.6-0.3-1-0.3c-0.2,0-0.5,0-0.7,0.1c-0.2,0.1-0.3,0.2-0.5,0.4c-0.1,0.2-0.2,0.3-0.3,0.5
			c-0.1,0.2-0.1,0.4-0.1,0.6h-0.9c0-0.4,0.1-0.7,0.2-1c0.1-0.3,0.3-0.6,0.5-0.8c0.2-0.2,0.4-0.4,0.7-0.5c0.3-0.1,0.6-0.2,1-0.2
			c0.3,0,0.7,0,0.9,0.1c0.3,0.1,0.5,0.2,0.8,0.4c0.2,0.2,0.4,0.4,0.5,0.6c0.1,0.3,0.2,0.6,0.2,0.9c0,0.4-0.1,0.7-0.3,0.9
			c-0.2,0.3-0.5,0.5-0.8,0.6v0c0.5,0.1,0.8,0.3,1.1,0.7s0.3,0.8,0.3,1.2c0,0.4-0.1,0.7-0.2,1s-0.3,0.5-0.6,0.7
			c-0.2,0.2-0.5,0.3-0.9,0.4c-0.3,0.1-0.7,0.1-1,0.1c-0.4,0-0.8-0.1-1.1-0.2c-0.3-0.1-0.6-0.3-0.8-0.5c-0.2-0.2-0.4-0.5-0.5-0.8
			s-0.2-0.7-0.2-1.1h0.9c0,0.5,0.2,0.9,0.4,1.2c0.3,0.3,0.7,0.5,1.2,0.5c0.2,0,0.4,0,0.6-0.1c0.2-0.1,0.4-0.2,0.5-0.3
			c0.2-0.1,0.3-0.3,0.4-0.5c0.1-0.2,0.1-0.4,0.1-0.6c0-0.2,0-0.5-0.1-0.6c-0.1-0.2-0.2-0.3-0.4-0.5c-0.1-0.1-0.3-0.2-0.5-0.3
			s-0.4-0.1-0.7-0.1c-0.2,0-0.4,0-0.6,0L23.2,196.5C23.1,196.5,23.1,196.5,23.2,196.5z" class="st1"></path>
		<path d="M27.5,196.2c0-0.3,0.1-0.6,0.1-0.9c0.1-0.3,0.1-0.6,0.3-0.8c0.1-0.3,0.3-0.5,0.5-0.7c0.2-0.2,0.4-0.4,0.7-0.5
			c0.3-0.1,0.6-0.2,1-0.2s0.7,0.1,1,0.2c0.3,0.1,0.5,0.3,0.7,0.5c0.2,0.2,0.3,0.4,0.5,0.7s0.2,0.5,0.3,0.8c0.1,0.3,0.1,0.6,0.1,0.9
			c0,0.3,0,0.6,0,0.9s0,0.6,0,0.9c0,0.3-0.1,0.6-0.1,0.9c-0.1,0.3-0.1,0.6-0.3,0.8c-0.1,0.3-0.3,0.5-0.5,0.7
			c-0.2,0.2-0.4,0.4-0.7,0.5c-0.3,0.1-0.6,0.2-1,0.2c-0.4,0-0.8-0.1-1-0.2c-0.3-0.1-0.5-0.3-0.7-0.5c-0.2-0.2-0.3-0.4-0.5-0.7
			c-0.1-0.3-0.2-0.5-0.3-0.8c-0.1-0.3-0.1-0.6-0.1-0.9c0-0.3,0-0.6,0-0.9S27.5,196.5,27.5,196.2z M28.5,198.1c0,0.4,0.1,0.7,0.2,1
			c0.1,0.3,0.3,0.6,0.5,0.8c0.2,0.2,0.5,0.3,0.9,0.3s0.7-0.1,0.9-0.3c0.2-0.2,0.4-0.5,0.5-0.8c0.1-0.3,0.2-0.7,0.2-1
			c0-0.4,0-0.7,0-1c0-0.2,0-0.4,0-0.6c0-0.2,0-0.5-0.1-0.7c0-0.2-0.1-0.5-0.1-0.7s-0.2-0.4-0.3-0.6s-0.3-0.3-0.5-0.4
			c-0.2-0.1-0.4-0.2-0.7-0.2c-0.3,0-0.5,0.1-0.7,0.2c-0.2,0.1-0.3,0.2-0.5,0.4c-0.1,0.2-0.2,0.4-0.3,0.6c-0.1,0.2-0.1,0.4-0.1,0.7
			c0,0.2-0.1,0.5-0.1,0.7c0,0.2,0,0.4,0,0.6C28.5,197.4,28.5,197.7,28.5,198.1z" class="st1"></path>
	</g>
	<g>
		<path d="M14.7,167.6h0.8v-3.5h2c0.4,0,0.7,0,1,0.1c0.3,0.1,0.6,0.2,0.8,0.4c0.2,0.2,0.4,0.4,0.5,0.7
			c0.1,0.3,0.2,0.6,0.2,0.9c0,0.4-0.1,0.7-0.2,1s-0.3,0.5-0.5,0.7s-0.5,0.3-0.8,0.4c-0.3,0.1-0.6,0.1-1,0.1h-1.1v1.1h1.8v0.7h-1.8
			v1.6h-0.9v-1.6h-0.8v-0.7h0.8v-1.1h-0.8V167.6z M17.5,167.6c0.5,0,0.9-0.1,1.2-0.3c0.3-0.2,0.4-0.6,0.4-1c0-0.5-0.1-0.8-0.4-1
			c-0.3-0.2-0.7-0.3-1.2-0.3h-1.1v2.7H17.5z" class="st1"></path>
		<path d="M26.3,169.1v0.8h-1.1v1.8h-0.9v-1.8H21V169l3.6-5.1h0.7v5.1H26.3z M24.4,165.3L24.4,165.3l-2.6,3.8h2.6V165.3
			z" class="st1"></path>
		<path d="M27.5,167c0-0.3,0.1-0.6,0.1-0.9c0.1-0.3,0.1-0.6,0.3-0.8c0.1-0.3,0.3-0.5,0.5-0.7c0.2-0.2,0.4-0.4,0.7-0.5
			c0.3-0.1,0.6-0.2,1-0.2s0.7,0.1,1,0.2c0.3,0.1,0.5,0.3,0.7,0.5c0.2,0.2,0.3,0.4,0.5,0.7s0.2,0.5,0.3,0.8c0.1,0.3,0.1,0.6,0.1,0.9
			c0,0.3,0,0.6,0,0.9s0,0.6,0,0.9c0,0.3-0.1,0.6-0.1,0.9c-0.1,0.3-0.1,0.6-0.3,0.8c-0.1,0.3-0.3,0.5-0.5,0.7
			c-0.2,0.2-0.4,0.4-0.7,0.5c-0.3,0.1-0.6,0.2-1,0.2c-0.4,0-0.8-0.1-1-0.2c-0.3-0.1-0.5-0.3-0.7-0.5c-0.2-0.2-0.3-0.4-0.5-0.7
			c-0.1-0.3-0.2-0.5-0.3-0.8c-0.1-0.3-0.1-0.6-0.1-0.9c0-0.3,0-0.6,0-0.9S27.5,167.3,27.5,167z M28.5,168.9c0,0.4,0.1,0.7,0.2,1
			c0.1,0.3,0.3,0.6,0.5,0.8c0.2,0.2,0.5,0.3,0.9,0.3s0.7-0.1,0.9-0.3c0.2-0.2,0.4-0.5,0.5-0.8c0.1-0.3,0.2-0.7,0.2-1
			c0-0.4,0-0.7,0-1c0-0.2,0-0.4,0-0.6c0-0.2,0-0.5-0.1-0.7c0-0.2-0.1-0.5-0.1-0.7s-0.2-0.4-0.3-0.6s-0.3-0.3-0.5-0.4
			c-0.2-0.1-0.4-0.2-0.7-0.2c-0.3,0-0.5,0.1-0.7,0.2c-0.2,0.1-0.3,0.2-0.5,0.4c-0.1,0.2-0.2,0.4-0.3,0.6c-0.1,0.2-0.1,0.4-0.1,0.7
			c0,0.2-0.1,0.5-0.1,0.7c0,0.2,0,0.4,0,0.6C28.5,168.2,28.5,168.5,28.5,168.9z" class="st1"></path>
	</g>
	<g>
		<path d="M14.7,138.4h0.8v-3.5h2c0.4,0,0.7,0,1,0.1c0.3,0.1,0.6,0.2,0.8,0.4c0.2,0.2,0.4,0.4,0.5,0.7
			c0.1,0.3,0.2,0.6,0.2,0.9c0,0.4-0.1,0.7-0.2,1s-0.3,0.5-0.5,0.7s-0.5,0.3-0.8,0.4c-0.3,0.1-0.6,0.1-1,0.1h-1.1v1.1h1.8v0.7h-1.8
			v1.6h-0.9V141h-0.8v-0.7h0.8v-1.1h-0.8V138.4z M17.5,138.4c0.5,0,0.9-0.1,1.2-0.3c0.3-0.2,0.4-0.6,0.4-1c0-0.5-0.1-0.8-0.4-1
			c-0.3-0.2-0.7-0.3-1.2-0.3h-1.1v2.7H17.5z" class="st1"></path>
		<path d="M22.7,135.7l-0.4,2.2l0,0c0.2-0.2,0.4-0.3,0.7-0.4c0.3-0.1,0.5-0.1,0.8-0.1c0.3,0,0.7,0.1,1,0.2
			c0.3,0.1,0.6,0.3,0.8,0.5c0.2,0.2,0.4,0.5,0.5,0.8c0.1,0.3,0.2,0.7,0.2,1.2c0,0.3-0.1,0.7-0.2,1c-0.1,0.3-0.3,0.6-0.5,0.8
			c-0.2,0.2-0.5,0.4-0.9,0.6c-0.3,0.1-0.7,0.2-1.2,0.2c-0.3,0-0.7,0-1-0.1c-0.3-0.1-0.6-0.2-0.8-0.4c-0.2-0.2-0.4-0.4-0.5-0.7
			c-0.1-0.3-0.2-0.6-0.2-0.9H22c0,0.2,0.1,0.4,0.1,0.6c0.1,0.2,0.2,0.3,0.3,0.5c0.1,0.1,0.3,0.2,0.5,0.3c0.2,0.1,0.4,0.1,0.6,0.1
			c0.2,0,0.4,0,0.6-0.1s0.4-0.2,0.5-0.3c0.1-0.2,0.3-0.3,0.4-0.6c0.1-0.2,0.1-0.5,0.1-0.8c0-0.3,0-0.5-0.1-0.7
			c-0.1-0.2-0.2-0.4-0.4-0.6c-0.2-0.2-0.3-0.3-0.6-0.4s-0.5-0.1-0.7-0.1c-0.3,0-0.6,0.1-0.8,0.2s-0.4,0.3-0.6,0.5l-0.8,0l0.7-4h3.9
			v0.8H22.7z" class="st1"></path>
		<path d="M27.5,137.9c0-0.3,0.1-0.6,0.1-0.9c0.1-0.3,0.1-0.6,0.3-0.8c0.1-0.3,0.3-0.5,0.5-0.7c0.2-0.2,0.4-0.4,0.7-0.5
			c0.3-0.1,0.6-0.2,1-0.2s0.7,0.1,1,0.2c0.3,0.1,0.5,0.3,0.7,0.5c0.2,0.2,0.3,0.4,0.5,0.7s0.2,0.5,0.3,0.8c0.1,0.3,0.1,0.6,0.1,0.9
			c0,0.3,0,0.6,0,0.9s0,0.6,0,0.9c0,0.3-0.1,0.6-0.1,0.9c-0.1,0.3-0.1,0.6-0.3,0.8c-0.1,0.3-0.3,0.5-0.5,0.7
			c-0.2,0.2-0.4,0.4-0.7,0.5c-0.3,0.1-0.6,0.2-1,0.2c-0.4,0-0.8-0.1-1-0.2c-0.3-0.1-0.5-0.3-0.7-0.5c-0.2-0.2-0.3-0.4-0.5-0.7
			c-0.1-0.3-0.2-0.5-0.3-0.8c-0.1-0.3-0.1-0.6-0.1-0.9c0-0.3,0-0.6,0-0.9S27.5,138.2,27.5,137.9z M28.5,139.7c0,0.4,0.1,0.7,0.2,1
			c0.1,0.3,0.3,0.6,0.5,0.8c0.2,0.2,0.5,0.3,0.9,0.3s0.7-0.1,0.9-0.3c0.2-0.2,0.4-0.5,0.5-0.8c0.1-0.3,0.2-0.7,0.2-1
			c0-0.4,0-0.7,0-1c0-0.2,0-0.4,0-0.6c0-0.2,0-0.5-0.1-0.7c0-0.2-0.1-0.5-0.1-0.7s-0.2-0.4-0.3-0.6s-0.3-0.3-0.5-0.4
			c-0.2-0.1-0.4-0.2-0.7-0.2c-0.3,0-0.5,0.1-0.7,0.2c-0.2,0.1-0.3,0.2-0.5,0.4c-0.1,0.2-0.2,0.4-0.3,0.6c-0.1,0.2-0.1,0.4-0.1,0.7
			c0,0.2-0.1,0.5-0.1,0.7c0,0.2,0,0.4,0,0.6C28.5,139,28.5,139.4,28.5,139.7z" class="st1"></path>
	</g>
	<g>
		<path d="M14.7,109.2h0.8v-3.5h2c0.4,0,0.7,0,1,0.1c0.3,0.1,0.6,0.2,0.8,0.4c0.2,0.2,0.4,0.4,0.5,0.7
			c0.1,0.3,0.2,0.6,0.2,0.9c0,0.4-0.1,0.7-0.2,1s-0.3,0.5-0.5,0.7s-0.5,0.3-0.8,0.4c-0.3,0.1-0.6,0.1-1,0.1h-1.1v1.1h1.8v0.7h-1.8
			v1.6h-0.9v-1.6h-0.8v-0.7h0.8V110h-0.8V109.2z M17.5,109.2c0.5,0,0.9-0.1,1.2-0.3c0.3-0.2,0.4-0.6,0.4-1c0-0.5-0.1-0.8-0.4-1
			c-0.3-0.2-0.7-0.3-1.2-0.3h-1.1v2.7H17.5z" class="st1"></path>
		<path d="M24.8,106.7c-0.2-0.2-0.5-0.3-0.9-0.3c-0.4,0-0.7,0.1-1,0.3c-0.2,0.2-0.4,0.4-0.6,0.7c-0.1,0.3-0.2,0.6-0.3,1
			c-0.1,0.3-0.1,0.7-0.1,1l0,0c0.2-0.4,0.5-0.6,0.8-0.8c0.3-0.2,0.7-0.2,1.1-0.2c0.4,0,0.7,0.1,1,0.2c0.3,0.1,0.5,0.3,0.7,0.5
			c0.2,0.2,0.4,0.5,0.5,0.8c0.1,0.3,0.2,0.6,0.2,1c0,0.3,0,0.6-0.1,0.9c-0.1,0.3-0.2,0.6-0.4,0.8s-0.5,0.5-0.8,0.6
			c-0.3,0.2-0.7,0.2-1.2,0.2c-0.6,0-1-0.1-1.4-0.4c-0.4-0.2-0.6-0.5-0.8-0.9c-0.2-0.4-0.3-0.8-0.4-1.2c-0.1-0.4-0.1-0.9-0.1-1.3
			c0-0.5,0-1.1,0.1-1.6c0.1-0.5,0.2-0.9,0.5-1.3c0.2-0.4,0.5-0.7,0.9-0.9c0.4-0.2,0.8-0.4,1.4-0.4c0.6,0,1.2,0.2,1.5,0.5
			c0.4,0.3,0.6,0.8,0.7,1.5h-0.9C25.2,107.2,25,106.9,24.8,106.7z M23.1,109.3c-0.2,0.1-0.4,0.2-0.5,0.4c-0.1,0.2-0.2,0.3-0.3,0.6
			c-0.1,0.2-0.1,0.4-0.1,0.7c0,0.2,0,0.5,0.1,0.7c0.1,0.2,0.2,0.4,0.3,0.5c0.1,0.2,0.3,0.3,0.5,0.4s0.4,0.1,0.7,0.1s0.5,0,0.7-0.1
			s0.4-0.2,0.5-0.4s0.2-0.3,0.3-0.6c0.1-0.2,0.1-0.4,0.1-0.7c0-0.2,0-0.5-0.1-0.7c-0.1-0.2-0.2-0.4-0.3-0.6
			c-0.1-0.2-0.3-0.3-0.5-0.4c-0.2-0.1-0.4-0.1-0.7-0.1S23.3,109.2,23.1,109.3z" class="st1"></path>
		<path d="M27.5,108.7c0-0.3,0.1-0.6,0.1-0.9c0.1-0.3,0.1-0.6,0.3-0.8c0.1-0.3,0.3-0.5,0.5-0.7c0.2-0.2,0.4-0.4,0.7-0.5
			c0.3-0.1,0.6-0.2,1-0.2s0.7,0.1,1,0.2c0.3,0.1,0.5,0.3,0.7,0.5c0.2,0.2,0.3,0.4,0.5,0.7s0.2,0.5,0.3,0.8c0.1,0.3,0.1,0.6,0.1,0.9
			c0,0.3,0,0.6,0,0.9s0,0.6,0,0.9c0,0.3-0.1,0.6-0.1,0.9c-0.1,0.3-0.1,0.6-0.3,0.8c-0.1,0.3-0.3,0.5-0.5,0.7
			c-0.2,0.2-0.4,0.4-0.7,0.5c-0.3,0.1-0.6,0.2-1,0.2c-0.4,0-0.8-0.1-1-0.2c-0.3-0.1-0.5-0.3-0.7-0.5c-0.2-0.2-0.3-0.4-0.5-0.7
			c-0.1-0.3-0.2-0.5-0.3-0.8c-0.1-0.3-0.1-0.6-0.1-0.9c0-0.3,0-0.6,0-0.9S27.5,109,27.5,108.7z M28.5,110.5c0,0.4,0.1,0.7,0.2,1
			c0.1,0.3,0.3,0.6,0.5,0.8c0.2,0.2,0.5,0.3,0.9,0.3s0.7-0.1,0.9-0.3c0.2-0.2,0.4-0.5,0.5-0.8c0.1-0.3,0.2-0.7,0.2-1
			c0-0.4,0-0.7,0-1c0-0.2,0-0.4,0-0.6c0-0.2,0-0.5-0.1-0.7c0-0.2-0.1-0.5-0.1-0.7s-0.2-0.4-0.3-0.6s-0.3-0.3-0.5-0.4
			c-0.2-0.1-0.4-0.2-0.7-0.2c-0.3,0-0.5,0.1-0.7,0.2c-0.2,0.1-0.3,0.2-0.5,0.4c-0.1,0.2-0.2,0.4-0.3,0.6c-0.1,0.2-0.1,0.4-0.1,0.7
			c0,0.2-0.1,0.5-0.1,0.7c0,0.2,0,0.4,0,0.6C28.5,109.8,28.5,110.2,28.5,110.5z" class="st1"></path>
	</g>
	<g>
		<path d="M14.7,80h0.8v-3.5h2c0.4,0,0.7,0,1,0.1c0.3,0.1,0.6,0.2,0.8,0.4c0.2,0.2,0.4,0.4,0.5,0.7
			c0.1,0.3,0.2,0.6,0.2,0.9c0,0.4-0.1,0.7-0.2,1s-0.3,0.5-0.5,0.7s-0.5,0.3-0.8,0.4c-0.3,0.1-0.6,0.1-1,0.1h-1.1v1.1h1.8v0.7h-1.8
			v1.6h-0.9v-1.6h-0.8v-0.7h0.8v-1.1h-0.8V80z M17.5,80c0.5,0,0.9-0.1,1.2-0.3c0.3-0.2,0.4-0.6,0.4-1c0-0.5-0.1-0.8-0.4-1
			c-0.3-0.2-0.7-0.3-1.2-0.3h-1.1V80H17.5z" class="st1"></path>
		<path d="M25.1,78.7c-0.3,0.5-0.7,1.1-0.9,1.7c-0.3,0.6-0.5,1.2-0.7,1.9c-0.2,0.6-0.3,1.3-0.3,1.9h-1
			c0-0.7,0.2-1.3,0.3-1.9c0.2-0.6,0.4-1.2,0.7-1.8c0.3-0.6,0.6-1.1,0.9-1.6c0.4-0.5,0.7-1,1.1-1.4h-4.1v-0.9h5v0.8
			C25.9,77.7,25.5,78.2,25.1,78.7z" class="st1"></path>
		<path d="M27.5,79.5c0-0.3,0.1-0.6,0.1-0.9c0.1-0.3,0.1-0.6,0.3-0.8c0.1-0.3,0.3-0.5,0.5-0.7c0.2-0.2,0.4-0.4,0.7-0.5
			c0.3-0.1,0.6-0.2,1-0.2s0.7,0.1,1,0.2c0.3,0.1,0.5,0.3,0.7,0.5c0.2,0.2,0.3,0.4,0.5,0.7s0.2,0.5,0.3,0.8c0.1,0.3,0.1,0.6,0.1,0.9
			c0,0.3,0,0.6,0,0.9s0,0.6,0,0.9c0,0.3-0.1,0.6-0.1,0.9c-0.1,0.3-0.1,0.6-0.3,0.8c-0.1,0.3-0.3,0.5-0.5,0.7
			c-0.2,0.2-0.4,0.4-0.7,0.5c-0.3,0.1-0.6,0.2-1,0.2c-0.4,0-0.8-0.1-1-0.2c-0.3-0.1-0.5-0.3-0.7-0.5c-0.2-0.2-0.3-0.4-0.5-0.7
			c-0.1-0.3-0.2-0.5-0.3-0.8c-0.1-0.3-0.1-0.6-0.1-0.9c0-0.3,0-0.6,0-0.9S27.5,79.8,27.5,79.5z M28.5,81.4c0,0.4,0.1,0.7,0.2,1
			c0.1,0.3,0.3,0.6,0.5,0.8c0.2,0.2,0.5,0.3,0.9,0.3s0.7-0.1,0.9-0.3c0.2-0.2,0.4-0.5,0.5-0.8c0.1-0.3,0.2-0.7,0.2-1
			c0-0.4,0-0.7,0-1c0-0.2,0-0.4,0-0.6c0-0.2,0-0.5-0.1-0.7c0-0.2-0.1-0.5-0.1-0.7s-0.2-0.4-0.3-0.6s-0.3-0.3-0.5-0.4
			c-0.2-0.1-0.4-0.2-0.7-0.2c-0.3,0-0.5,0.1-0.7,0.2c-0.2,0.1-0.3,0.2-0.5,0.4c-0.1,0.2-0.2,0.4-0.3,0.6c-0.1,0.2-0.1,0.4-0.1,0.7
			c0,0.2-0.1,0.5-0.1,0.7c0,0.2,0,0.4,0,0.6C28.5,80.7,28.5,81,28.5,81.4z" class="st1"></path>
	</g>
	<g>
		<path d="M14.7,50.9h0.8v-3.5h2c0.4,0,0.7,0,1,0.1c0.3,0.1,0.6,0.2,0.8,0.4c0.2,0.2,0.4,0.4,0.5,0.7
			c0.1,0.3,0.2,0.6,0.2,0.9c0,0.4-0.1,0.7-0.2,1s-0.3,0.5-0.5,0.7s-0.5,0.3-0.8,0.4c-0.3,0.1-0.6,0.1-1,0.1h-1.1v1.1h1.8v0.7h-1.8
			V55h-0.9v-1.6h-0.8v-0.7h0.8v-1.1h-0.8V50.9z M17.5,50.9c0.5,0,0.9-0.1,1.2-0.3c0.3-0.2,0.4-0.6,0.4-1c0-0.5-0.1-0.8-0.4-1
			c-0.3-0.2-0.7-0.3-1.2-0.3h-1.1v2.7H17.5z" class="st1"></path>
		<path d="M21.6,48.4c0.1-0.2,0.3-0.5,0.5-0.6c0.2-0.2,0.5-0.3,0.7-0.4c0.3-0.1,0.6-0.1,0.9-0.1c0.4,0,0.8,0.1,1.1,0.2
			c0.3,0.1,0.5,0.3,0.7,0.5c0.2,0.2,0.3,0.4,0.4,0.6C26,48.7,26,49,26,49.2c0,0.4-0.1,0.7-0.3,1c-0.2,0.3-0.5,0.5-0.8,0.7
			c0.5,0.1,0.8,0.4,1,0.7c0.2,0.3,0.3,0.7,0.3,1.2c0,0.4-0.1,0.7-0.2,1c-0.1,0.3-0.3,0.5-0.6,0.7c-0.2,0.2-0.5,0.4-0.8,0.5
			s-0.7,0.2-1,0.2c-0.4,0-0.7,0-1-0.1c-0.3-0.1-0.6-0.2-0.8-0.4s-0.4-0.4-0.6-0.7c-0.1-0.3-0.2-0.6-0.2-1c0-0.5,0.1-0.9,0.4-1.2
			c0.2-0.3,0.6-0.6,1-0.7c-0.3-0.1-0.6-0.3-0.8-0.6c-0.2-0.3-0.3-0.6-0.3-1C21.4,48.9,21.4,48.6,21.6,48.4z M22.6,53.9
			c0.3,0.3,0.7,0.4,1.2,0.4c0.2,0,0.4,0,0.6-0.1s0.4-0.2,0.5-0.3c0.1-0.1,0.3-0.3,0.3-0.5c0.1-0.2,0.1-0.4,0.1-0.6
			c0-0.2,0-0.4-0.1-0.6c-0.1-0.2-0.2-0.3-0.3-0.5c-0.1-0.1-0.3-0.2-0.5-0.3c-0.2-0.1-0.4-0.1-0.6-0.1c-0.2,0-0.4,0-0.6,0.1
			c-0.2,0.1-0.4,0.2-0.5,0.3c-0.2,0.1-0.3,0.3-0.4,0.5c-0.1,0.2-0.1,0.4-0.1,0.6C22.1,53.3,22.2,53.7,22.6,53.9z M22.5,49.8
			c0.1,0.2,0.2,0.3,0.3,0.4c0.1,0.1,0.3,0.2,0.4,0.2c0.2,0.1,0.3,0.1,0.5,0.1c0.4,0,0.7-0.1,0.9-0.3c0.2-0.2,0.4-0.5,0.4-0.9
			c0-0.4-0.1-0.7-0.4-0.9c-0.2-0.2-0.6-0.3-0.9-0.3c-0.2,0-0.4,0-0.5,0.1c-0.2,0.1-0.3,0.1-0.4,0.2s-0.2,0.2-0.3,0.4
			s-0.1,0.3-0.1,0.5C22.4,49.5,22.4,49.6,22.5,49.8z" class="st1"></path>
		<path d="M27.5,50.3c0-0.3,0.1-0.6,0.1-0.9c0.1-0.3,0.1-0.6,0.3-0.8c0.1-0.3,0.3-0.5,0.5-0.7c0.2-0.2,0.4-0.4,0.7-0.5
			c0.3-0.1,0.6-0.2,1-0.2s0.7,0.1,1,0.2c0.3,0.1,0.5,0.3,0.7,0.5c0.2,0.2,0.3,0.4,0.5,0.7s0.2,0.5,0.3,0.8c0.1,0.3,0.1,0.6,0.1,0.9
			c0,0.3,0,0.6,0,0.9s0,0.6,0,0.9c0,0.3-0.1,0.6-0.1,0.9c-0.1,0.3-0.1,0.6-0.3,0.8c-0.1,0.3-0.3,0.5-0.5,0.7
			c-0.2,0.2-0.4,0.4-0.7,0.5c-0.3,0.1-0.6,0.2-1,0.2c-0.4,0-0.8-0.1-1-0.2c-0.3-0.1-0.5-0.3-0.7-0.5c-0.2-0.2-0.3-0.4-0.5-0.7
			c-0.1-0.3-0.2-0.5-0.3-0.8c-0.1-0.3-0.1-0.6-0.1-0.9c0-0.3,0-0.6,0-0.9S27.5,50.6,27.5,50.3z M28.5,52.2c0,0.4,0.1,0.7,0.2,1
			c0.1,0.3,0.3,0.6,0.5,0.8c0.2,0.2,0.5,0.3,0.9,0.3s0.7-0.1,0.9-0.3c0.2-0.2,0.4-0.5,0.5-0.8c0.1-0.3,0.2-0.7,0.2-1
			c0-0.4,0-0.7,0-1c0-0.2,0-0.4,0-0.6c0-0.2,0-0.5-0.1-0.7c0-0.2-0.1-0.5-0.1-0.7s-0.2-0.4-0.3-0.6s-0.3-0.3-0.5-0.4
			c-0.2-0.1-0.4-0.2-0.7-0.2c-0.3,0-0.5,0.1-0.7,0.2c-0.2,0.1-0.3,0.2-0.5,0.4c-0.1,0.2-0.2,0.4-0.3,0.6c-0.1,0.2-0.1,0.4-0.1,0.7
			c0,0.2-0.1,0.5-0.1,0.7c0,0.2,0,0.4,0,0.6C28.5,51.5,28.5,51.8,28.5,52.2z" class="st1"></path>
	</g>
	<g>
		<path d="M14.7,21.7h0.8v-3.5h2c0.4,0,0.7,0,1,0.1c0.3,0.1,0.6,0.2,0.8,0.4c0.2,0.2,0.4,0.4,0.5,0.7
			c0.1,0.3,0.2,0.6,0.2,0.9c0,0.4-0.1,0.7-0.2,1s-0.3,0.5-0.5,0.7s-0.5,0.3-0.8,0.4c-0.3,0.1-0.6,0.1-1,0.1h-1.1v1.1h1.8v0.7h-1.8
			v1.6h-0.9v-1.6h-0.8v-0.7h0.8v-1.1h-0.8V21.7z M17.5,21.7c0.5,0,0.9-0.1,1.2-0.3c0.3-0.2,0.4-0.6,0.4-1c0-0.5-0.1-0.8-0.4-1
			c-0.3-0.2-0.7-0.3-1.2-0.3h-1.1v2.7H17.5z" class="st1"></path>
		<path d="M22.6,24.8c0.3,0.2,0.6,0.3,1,0.3c0.6,0,1-0.2,1.3-0.7s0.4-1.3,0.5-2.3l0,0c-0.2,0.3-0.4,0.6-0.7,0.8
			s-0.7,0.3-1.1,0.3c-0.4,0-0.7-0.1-1.1-0.2c-0.3-0.1-0.6-0.3-0.8-0.5s-0.4-0.5-0.5-0.8C21.1,21.3,21,21,21,20.6
			c0-0.4,0.1-0.7,0.2-1c0.1-0.3,0.3-0.6,0.5-0.8c0.2-0.2,0.5-0.4,0.8-0.5c0.3-0.1,0.7-0.2,1-0.2c0.4,0,0.7,0.1,1,0.2
			c0.3,0.1,0.6,0.3,0.8,0.6c0.2,0.3,0.4,0.7,0.6,1.1s0.2,1.1,0.2,1.8c0,1.3-0.2,2.4-0.6,3.1c-0.4,0.7-1.1,1.1-2.1,1.1
			c-0.7,0-1.2-0.2-1.6-0.5s-0.7-0.8-0.7-1.5h0.9C22.2,24.3,22.3,24.6,22.6,24.8z M25.1,20c-0.1-0.2-0.2-0.4-0.3-0.6
			s-0.3-0.3-0.5-0.4c-0.2-0.1-0.4-0.1-0.7-0.1c-0.3,0-0.5,0.1-0.7,0.2c-0.2,0.1-0.4,0.2-0.5,0.4c-0.1,0.2-0.2,0.4-0.3,0.6
			c-0.1,0.2-0.1,0.5-0.1,0.7c0,0.2,0,0.4,0.1,0.6s0.2,0.4,0.3,0.5c0.1,0.2,0.3,0.3,0.5,0.4s0.4,0.1,0.6,0.1c0.2,0,0.5,0,0.7-0.1
			c0.2-0.1,0.4-0.2,0.5-0.4c0.1-0.2,0.2-0.3,0.3-0.5c0.1-0.2,0.1-0.4,0.1-0.7C25.2,20.4,25.1,20.2,25.1,20z" class="st1"></path>
		<path d="M27.5,21.1c0-0.3,0.1-0.6,0.1-0.9c0.1-0.3,0.1-0.6,0.3-0.8c0.1-0.3,0.3-0.5,0.5-0.7c0.2-0.2,0.4-0.4,0.7-0.5
			c0.3-0.1,0.6-0.2,1-0.2s0.7,0.1,1,0.2c0.3,0.1,0.5,0.3,0.7,0.5c0.2,0.2,0.3,0.4,0.5,0.7s0.2,0.5,0.3,0.8c0.1,0.3,0.1,0.6,0.1,0.9
			c0,0.3,0,0.6,0,0.9s0,0.6,0,0.9c0,0.3-0.1,0.6-0.1,0.9c-0.1,0.3-0.1,0.6-0.3,0.8c-0.1,0.3-0.3,0.5-0.5,0.7
			c-0.2,0.2-0.4,0.4-0.7,0.5c-0.3,0.1-0.6,0.2-1,0.2c-0.4,0-0.8-0.1-1-0.2c-0.3-0.1-0.5-0.3-0.7-0.5c-0.2-0.2-0.3-0.4-0.5-0.7
			c-0.1-0.3-0.2-0.5-0.3-0.8c-0.1-0.3-0.1-0.6-0.1-0.9c0-0.3,0-0.6,0-0.9S27.5,21.4,27.5,21.1z M28.5,23c0,0.4,0.1,0.7,0.2,1
			c0.1,0.3,0.3,0.6,0.5,0.8c0.2,0.2,0.5,0.3,0.9,0.3s0.7-0.1,0.9-0.3c0.2-0.2,0.4-0.5,0.5-0.8c0.1-0.3,0.2-0.7,0.2-1
			c0-0.4,0-0.7,0-1c0-0.2,0-0.4,0-0.6c0-0.2,0-0.5-0.1-0.7c0-0.2-0.1-0.5-0.1-0.7s-0.2-0.4-0.3-0.6S31,19.1,30.8,19
			c-0.2-0.1-0.4-0.2-0.7-0.2c-0.3,0-0.5,0.1-0.7,0.2c-0.2,0.1-0.3,0.2-0.5,0.4c-0.1,0.2-0.2,0.4-0.3,0.6c-0.1,0.2-0.1,0.4-0.1,0.7
			c0,0.2-0.1,0.5-0.1,0.7c0,0.2,0,0.4,0,0.6C28.5,22.3,28.5,22.6,28.5,23z" class="st1"></path>
	</g>
</g>
<g id="Layer_4">
	<line y2="145" x2="52.5" y1="186.7" x1="52.5" class="st2"></line>
	<line y2="197.3" x2="64.5" y1="168" x1="64.5" class="st2"></line>
	<line y2="197.3" x2="76.5" y1="168" x1="76.5" class="st2"></line>
	<line y2="243.7" x2="88.5" y1="211" x1="88.5" class="st2"></line>
	<line y2="245.8" x2="124.5" y1="190.2" x1="124.5" class="st2"></line>
	<line y2="132.5" x2="172.5" y1="87" x1="172.5" class="st2"></line>
	<line y2="192.7" x2="208.5" y1="157.2" x1="208.5" class="st2"></line>
	<line y2="208.1" x2="220.5" y1="169" x1="220.5" class="st2"></line>
	<line y2="238.2" x2="244.5" y1="201.7" x1="244.5" class="st2"></line>
	<line y2="176.3" x2="280.5" y1="136.1" x1="280.5" class="st2"></line>
	<line y2="204.2" x2="292.5" y1="164.1" x1="292.5" class="st2"></line>
	<line y2="192" x2="376.5" y1="144" x1="376.5" class="st2"></line>
	<line y2="195.9" x2="388.5" y1="165.2" x1="388.5" class="st2"></line>
	<line y2="184.9" x2="400.5" y1="147.2" x1="400.5" class="st2"></line>
	<line y2="219.9" x2="304.5" y1="145.9" x1="304.5" class="st2"></line>
	<line y2="194.9" x2="328.5" y1="130.4" x1="328.5" class="st2"></line>
	<line y2="125" x2="352.5" y1="75.8" x1="352.5" class="st2"></line>
	<line y2="185.1" x2="340.5" y1="105.8" x1="340.5" class="st2"></line>
	<line y2="184.1" x2="364.5" y1="93.8" x1="364.5" class="st2"></line>
	<line y2="200" x2="316.5" y1="137.3" x1="316.5" class="st2"></line>
	<line y2="257.5" x2="256.5" y1="201.7" x1="256.5" class="st2"></line>
	<line y2="284.2" x2="268.5" y1="222.8" x1="268.5" class="st2"></line>
	<line y2="224.2" x2="232.5" y1="188.5" x1="232.5" class="st2"></line>
	<line y2="109.8" x2="184.5" y1="70.1" x1="184.5" class="st2"></line>
	<line y2="176.5" x2="196.5" y1="84.2" x1="196.5" class="st2"></line>
	<line y2="255.7" x2="148.5" y1="137.6" x1="148.5" class="st2"></line>
	<line y2="196.7" x2="160.5" y1="119.7" x1="160.5" class="st2"></line>
	<line y2="268" x2="112.5" y1="241.5" x1="112.5" class="st2"></line>
	<line y2="245.8" x2="136.5" y1="214.9" x1="136.5" class="st2"></line>
	<line y2="272.1" x2="100.5" y1="239.4" x1="100.5" class="st2"></line>
	<line y2="205.7" x2="412.5" y1="166.1" x1="412.5" class="st2"></line>
	<line y2="205.7" x2="424.5" y1="182.6" x1="424.5" class="st2"></line>
	<line y2="166.1" x2="436.5" y1="203.2" x1="436.5" class="st2"></line>
	<line y2="205.7" x2="448.5" y1="180.5" x1="448.5" class="st2"></line>
	<line y2="223.5" x2="460.5" y1="158" x1="460.5" class="st2"></line>
	<line y2="163.8" x2="472.5" y1="203.2" x1="472.5" class="st2"></line>
	<line y2="176.1" x2="484.5" y1="238.8" x1="484.5" class="st2"></line>
	<line y2="220.5" x2="496.5" y1="264.5" x1="496.5" class="st2"></line>
	<line y2="286.8" x2="508.5" y1="254.8" x1="508.5" class="st2"></line>
	<line y2="220.5" x2="520.5" y1="285" x1="520.5" class="st2"></line>
	<line y2="220.5" x2="532.5" y1="246.2" x1="532.5" class="st2"></line>
	<line y2="235.2" x2="544.5" y1="275.3" x1="544.5" class="st2"></line>
	<line y2="250.1" x2="556.5" y1="282" x1="556.5" class="st2"></line>
	<line y2="194.1" x2="568.5" y1="238.8" x1="568.5" class="st2"></line>
	<line y2="231.5" x2="580.5" y1="193.1" x1="580.5" class="st2"></line>
	<line y2="176.1" x2="592.5" y1="230.1" x1="592.5" class="st2"></line>
	<line y2="231.5" x2="604.5" y1="194.9" x1="604.5" class="st2"></line>
	<line y2="151.8" x2="616.5" y1="205.7" x1="616.5" class="st2"></line>
	<line y2="114.4" x2="628.5" y1="156.2" x1="628.5" class="st2"></line>
	<line y2="155.2" x2="640.5" y1="120.2" x1="640.5" class="st2"></line>
	<line y2="199.6" x2="652.5" y1="131.3" x1="652.5" class="st2"></line>
	<line y2="88.5" x2="664.5" y1="113.4" x1="664.5" class="st2"></line>
	<line y2="128" x2="676.5" y1="64.2" x1="676.5" class="st2"></line>
	<line y2="92.2" x2="688.5" y1="48.8" x1="688.5" class="st2"></line>
	<line y2="73.8" x2="700.5" y1="32.8" x1="700.5" class="st2"></line>
	<line y2="108.5" x2="712.5" y1="55" x1="712.5" class="st2"></line>
</g>
<g id="Layer_1">
	<rect height="29.3" width="7" class="st3" y="153.3" x="49"></rect>
	<rect height="12.3" width="7" class="st4" y="170.3" x="61"></rect>
	<rect height="51.9" width="7" class="st3" y="174.2" x="73"></rect>
	<rect height="79.8" width="7" class="st3" y="90.5" x="193"></rect>
	<rect height="39.1" width="7" class="st3" y="227.4" x="97"></rect>
	<rect height="14.5" width="7" class="st4" y="248.5" x="109"></rect>
	<rect height="9.6" width="7" class="st4" y="224.6" x="121"></rect>
	<rect height="14.4" width="7" class="st3" y="217.8" x="133"></rect>
	<rect height="22" width="7" class="st3" y="174.2" x="217"></rect>
	<rect height="22" width="7" class="st3" y="149" x="277"></rect>
	<rect height="7.6" width="7" class="st3" y="145.2" x="325"></rect>
	<rect height="7.6" width="7" class="st3" y="169.5" x="385"></rect>
	<rect height="26.5" width="7" class="st3" y="168.4" x="409"></rect>
	<rect height="9.4" width="7" class="st3" y="184.1" x="433"></rect>
	<rect height="8.2" width="7" class="st3" y="186.7" x="457"></rect>
	<rect height="8.2" width="7" class="st3" y="269.7" x="553"></rect>
	<rect height="6.4" width="7" class="st3" y="124.8" x="637"></rect>
	<rect height="16.8" width="7" class="st3" y="62.7" x="709"></rect>
	<rect height="12" width="7" class="st3" y="226.9" x="529"></rect>
	<rect height="25.3" width="7" class="st3" y="201.7" x="481"></rect>
	<rect height="31.8" width="7" class="st3" y="227.5" x="493"></rect>
	<rect height="28.1" width="7" class="st3" y="243.4" x="541"></rect>
	<rect height="26.6" width="7" class="st3" y="200.3" x="589"></rect>
	<rect height="60.5" width="7" class="st3" y="135.4" x="649"></rect>
	<rect height="26.6" width="7" class="st4" y="197.9" x="601"></rect>
	<rect height="40" width="7" class="st4" y="160" x="613"></rect>
	<rect height="32" width="7" class="st4" y="121.5" x="625"></rect>
	<rect height="57" width="7" class="st4" y="96.5" x="661"></rect>
	<rect height="31.8" width="7" class="st4" y="71" x="673"></rect>
	<rect height="31.9" width="7" class="st4" y="39.2" x="697"></rect>
	<rect height="10.2" width="7" class="st4" y="60.8" x="685"></rect>
	<rect height="24.5" width="7" class="st3" y="257.4" x="505"></rect>
	<rect height="50.3" width="7" class="st4" y="225" x="517"></rect>
	<rect height="32.9" width="7" class="st4" y="200" x="565"></rect>
	<rect height="7.2" width="7" class="st4" y="196" x="577"></rect>
	<rect height="4.1" width="7" class="st3" y="195.9" x="469"></rect>
	<rect height="10.7" width="7" class="st3" y="105.8" x="349"></rect>
	<rect height="69.6" width="7" class="st3" y="111.1" x="361"></rect>
	<rect height="45.4" width="7" class="st4" y="113.4" x="337"></rect>
	<rect height="25.5" width="7" class="st3" y="168" x="289"></rect>
	<rect height="45.6" width="7" class="st4" y="142.6" x="313"></rect>
	<rect height="1.2" width="7" class="st3" y="191.5" x="301"></rect>
	<rect height="1.2" width="7" class="st4" y="168.4" x="373"></rect>
	<rect height="2.3" width="7" class="st4" y="176.1" x="397"></rect>
	<rect height="7.2" width="7" class="st4" y="184.1" x="421"></rect>
	<rect height="9.9" width="7" class="st4" y="182.6" x="445"></rect>
	<rect height="29.2" width="7" class="st3" y="193.5" x="229"></rect>
	<rect height="19.2" width="7" class="st4" y="208.1" x="241"></rect>
	<rect height="16.8" width="7" class="st3" y="208.1" x="253"></rect>
	<rect height="30.8" width="7" class="st3" y="232.2" x="265"></rect>
	<rect height="71.8" width="7" class="st4" y="164.5" x="145"></rect>
	<rect height="46.9" width="7" class="st4" y="124.8" x="157"></rect>
	<rect height="15.2" width="7" class="st4" y="98.2" x="169"></rect>
	<rect height="3.3" width="7" class="st4" y="92.8" x="181"></rect>
	<rect height="5.5" width="7" class="st3" y="224.6" x="85"></rect>
	<rect height="2.7" width="7" class="st3" y="169" x="205"></rect>
	<g>
	</g>
	<g>
	</g>
	<g>
	</g>
	<g>
	</g>
	<g>
	</g>
	<g>
	</g>
	<g>
	</g>
	<g>
	</g>
	<g>
	</g>
	<g>
	</g>
</g>
</svg>
